<!DOCTYPE svg PUBLIC "-//W3C//DTD SVG 20010904//EN" "http://www.w3.org/TR/2001/REC-SVG-20010904/DTD/svg10.dtd">
<svg version="1.0" xmlns="http://www.w3.org/2000/svg" width="650px" height="650px" viewBox="0 0 6500 6500" preserveAspectRatio="xMidYMid meet">
<g id="layer101" fill="#0c0e12" stroke="none">
 <path d="M2860 6047 c-47 -23 -39 -106 13 -137 62 -38 137 -16 137 40 0 34 -27 53 -68 48 -34 -4 -37 -38 -4 -54 20 -10 21 -12 6 -18 -18 -7 -64 18 -64 34 0 6 9 19 20 30 27 27 75 25 138 -6 57 -28 176 -139 167 -154 -10 -16 -124 -12 -160 6 -19 9 -42 14 -52 12 -42 -9 84 -67 147 -68 35 0 36 -2 125 -157 158 -278 351 -583 368 -583 14 0 1 26 -77 149 -60 95 -266 463 -266 475 0 2 18 -5 39 -16 54 -27 115 -22 119 10 3 21 6 20 54 -23 28 -25 54 -45 59 -45 5 0 9 -14 9 -32 0 -92 146 -172 246 -133 51 19 74 54 74 110 0 49 -23 90 -83 152 l-51 52 38 -11 c53 -17 101 -65 116 -118 21 -75 94 -132 128 -98 27 27 -5 76 -38 58 -26 -14 -26 -14 -40 19 -14 34 -10 83 7 88 17 6 82 -55 104 -98 10 -21 30 -93 45 -161 14 -68 46 -204 70 -303 25 -99 56 -234 70 -299 24 -118 29 -134 39 -124 5 4 -50 282 -129 653 -27 128 -44 265 -31 265 16 0 61 -61 76 -104 l17 -47 -34 26 c-29 22 -34 23 -34 9 0 -31 82 -96 175 -140 139 -65 129 -41 151 -371 10 -156 22 -283 26 -283 9 0 9 78 -1 285 -4 83 -4 206 0 275 10 166 18 187 52 130 14 -22 16 -41 11 -78 -10 -80 40 -158 90 -139 21 8 20 51 0 68 -14 11 -18 10 -30 -6 -13 -17 -14 -15 -14 22 0 26 7 49 20 64 l20 24 20 -23 c27 -33 42 -93 34 -141 -7 -41 10 -101 27 -101 5 0 9 24 9 54 0 54 16 116 30 116 16 0 24 -37 25 -120 1 -92 14 -127 53 -136 30 -8 54 13 50 45 -3 23 -7 26 -36 24 -32 -1 -33 0 -27 25 10 41 34 74 53 70 9 -2 25 -18 36 -37 17 -30 18 -39 8 -77 -22 -83 -11 -141 31 -169 35 -22 59 -10 55 29 -3 27 -7 31 -30 29 -24 -2 -28 2 -28 25 0 54 51 93 78 60 28 -35 24 -83 -23 -233 -54 -173 -178 -665 -170 -673 3 -3 7 -3 10 -1 2 3 34 113 70 245 93 340 173 574 195 574 5 0 12 -15 15 -34 5 -26 -6 -73 -48 -202 -31 -93 -79 -257 -107 -364 -28 -107 -65 -242 -82 -298 -17 -60 -26 -108 -21 -113 5 -5 38 95 77 234 71 249 161 525 177 542 6 5 9 1 9 -11 0 -28 28 -64 50 -64 14 0 21 -9 25 -37 11 -69 21 -83 58 -83 41 0 66 24 74 74 8 48 19 53 32 14 15 -42 14 -59 -5 -104 -13 -32 -17 -35 -25 -21 -14 25 -63 21 -96 -7 -67 -56 -103 -171 -122 -386 -9 -92 -8 -124 2 -109 1 2 13 63 24 134 31 186 47 232 98 283 46 46 71 48 80 6 16 -80 17 -80 25 -59 4 11 13 39 19 62 14 52 43 88 63 80 9 -3 19 -24 23 -47 6 -34 3 -45 -14 -63 -25 -27 -51 -88 -51 -119 0 -32 27 -68 50 -68 24 0 53 41 44 64 -7 19 -35 21 -52 4 -9 -9 -12 -8 -12 6 0 23 56 76 80 76 22 0 30 -19 30 -70 0 -23 -5 -40 -14 -43 -26 -10 -57 -93 -54 -144 2 -40 6 -48 24 -51 26 -4 54 22 54 49 0 14 -7 19 -25 19 -34 0 -32 24 4 61 65 64 84 -9 26 -102 -33 -54 -57 -139 -39 -139 5 0 22 22 37 48 16 26 41 63 57 82 l29 35 1 -27 c0 -46 -16 -74 -133 -220 -62 -79 -151 -197 -197 -263 -46 -66 -117 -164 -158 -218 -41 -53 -72 -100 -68 -105 9 -9 37 24 188 223 98 130 176 227 287 357 4 4 5 -11 3 -33 -10 -104 109 -103 163 2 37 71 -10 179 -55 124 -16 -19 -3 -55 21 -55 27 0 24 -35 -6 -65 -25 -26 -69 -33 -80 -14 -18 28 7 99 61 170 72 96 122 186 145 261 23 72 25 176 5 204 -20 26 -30 13 -15 -20 18 -39 -2 -133 -51 -230 -44 -88 -93 -159 -83 -119 9 37 -6 96 -23 89 -11 -4 -14 4 -14 35 0 49 -15 79 -38 79 -14 0 -17 10 -18 49 -1 60 -25 101 -59 101 -22 0 -25 4 -25 40 0 56 -24 110 -49 110 -16 0 -22 11 -31 55 -13 62 -79 170 -157 255 -28 30 -60 71 -72 90 l-21 35 -1 -35 -1 -35 -8 38 c-9 50 -24 65 -49 50 -17 -11 -19 -8 -25 28 -8 50 -38 81 -74 77 -24 -3 -30 3 -54 54 -28 60 -53 76 -102 64 -20 -5 -25 0 -40 37 -9 23 -16 68 -16 98 0 65 -30 190 -59 247 -63 124 -191 138 -191 21 0 -48 31 -86 76 -95 42 -8 67 10 67 50 0 14 1 26 3 26 2 0 14 -21 28 -47 42 -85 60 -215 31 -227 -8 -3 -15 -13 -15 -23 0 -10 -13 7 -28 37 -29 59 -68 84 -99 64 -14 -9 -22 -2 -47 35 -36 53 -62 63 -75 29 -8 -22 -9 -21 -29 17 -28 56 -54 77 -91 73 -23 -2 -38 5 -63 29 -44 41 -72 49 -96 25 -18 -18 -19 -17 -56 25 -40 46 -65 54 -73 24 -4 -17 -9 -15 -43 19 -46 46 -106 63 -125 36 -11 -15 -17 -13 -63 18 -28 19 -55 36 -59 38 -5 1 -24 30 -43 62 -45 76 -143 182 -191 207 -47 23 -121 25 -143 3 -35 -35 -12 -101 43 -124 65 -26 123 7 106 61 -6 18 -4 19 12 11 38 -22 163 -169 163 -194 0 -16 -225 -1 -261 17 -18 10 -61 20 -95 23 -54 4 -63 8 -78 33 -26 44 -126 148 -157 165 -32 16 -82 18 -108 5 -12 -7 -31 -5 -57 4 -49 18 -92 18 -124 2z m623 -48 c-4 -15 0 -27 13 -36 18 -14 18 -14 -5 -11 -13 2 -29 11 -35 21 -9 15 -7 21 8 33 25 18 25 18 19 -7z m-310 -21 c15 -11 48 -45 73 -75 39 -49 43 -58 29 -66 -13 -7 -33 9 -95 72 -43 45 -84 81 -92 82 -7 0 -4 4 7 8 23 10 40 5 78 -21z m213 -240 c13 -25 12 -30 -5 -47 -12 -12 -27 -17 -41 -14 -26 7 -117 89 -108 98 3 3 28 10 55 14 53 8 74 -2 99 -51z m145 28 c33 -16 72 -26 101 -26 26 0 58 -4 73 -10 40 -15 123 -98 136 -137 30 -92 -75 -155 -177 -107 -53 25 -92 94 -45 79 10 -3 30 -1 45 4 21 9 26 17 26 44 0 18 -5 38 -12 45 -21 21 -65 14 -86 -13 -11 -14 -23 -25 -27 -25 -10 0 -114 101 -148 144 l-31 39 45 -6 c25 -3 70 -17 100 -31z m1107 -133 c-25 -6 -31 -34 -12 -54 14 -16 14 -19 3 -19 -20 0 -39 20 -39 40 0 22 20 40 45 39 15 -1 16 -2 3 -6z m-980 -15 c-3 -7 -15 -15 -28 -16 -21 -3 -22 -2 -11 12 16 19 44 21 39 4z m672 -136 c0 -18 5 -42 10 -53 13 -23 10 -23 -36 -4 -23 10 -39 26 -49 49 -19 45 -19 61 1 81 15 15 19 14 45 -11 21 -20 29 -37 29 -62z m104 -12 c14 -17 28 -47 31 -68 4 -20 8 -49 11 -63 5 -24 1 -22 -46 22 -49 46 -69 90 -57 124 10 24 33 18 61 -15z m815 -719 c-6 -16 -19 -37 -31 -47 -19 -18 -20 -18 -34 1 -18 25 -18 57 2 103 l15 37 29 -32 c26 -29 28 -36 19 -62z m91 -99 c0 -29 -25 -78 -44 -85 -18 -7 -46 28 -46 58 1 11 7 31 15 45 8 14 14 36 15 50 0 24 1 23 30 -10 16 -19 29 -45 30 -58z"/>
 <path d="M3932 5917 c4 -20 1 -23 -19 -19 -30 6 -31 -21 0 -58 12 -15 27 -36 34 -46 11 -18 12 -17 13 6 0 22 2 23 11 8 5 -10 15 -18 20 -18 6 0 19 -10 28 -22 18 -21 18 -20 24 37 3 32 4 62 1 67 -12 19 -34 6 -42 -24 l-9 -33 -8 45 c-9 57 -21 80 -42 80 -11 0 -14 -7 -11 -23z"/>
 <path d="M2360 5888 c0 -6 7 -19 15 -28 14 -15 13 -17 -7 -16 -13 1 -24 -6 -26 -16 -2 -12 7 -20 37 -28 22 -6 43 -15 46 -20 10 -16 38 -12 32 4 -4 10 -1 13 9 9 8 -3 14 1 14 8 0 10 3 10 12 1 14 -14 48 -16 48 -3 0 5 -6 14 -14 21 -8 6 -16 24 -18 38 -2 20 -9 28 -27 30 -22 4 -24 1 -18 -32 l6 -35 -38 39 c-37 39 -71 52 -71 28z"/>
 <path d="M2033 5830 c-39 -16 -25 -21 35 -15 73 8 122 -9 225 -78 74 -49 76 -52 50 -57 -18 -4 -28 -12 -27 -22 1 -12 -9 -16 -46 -15 -52 1 -80 -15 -80 -44 0 -16 -8 -19 -48 -19 -63 0 -95 -22 -90 -61 l5 -29 -58 0 c-32 0 -70 -5 -85 -10 -22 -9 -26 -15 -21 -39 6 -28 4 -29 -42 -35 -72 -10 -155 -56 -259 -146 -51 -44 -101 -80 -112 -80 -33 0 -32 -18 1 -25 l32 -7 -67 -36 c-82 -43 -146 -99 -204 -177 -43 -59 -44 -60 -20 -66 21 -5 20 -7 -19 -27 -23 -12 -53 -22 -66 -22 -32 0 -101 -51 -135 -99 -27 -39 -53 -51 -111 -51 -29 0 -75 -35 -66 -50 3 -5 20 -3 38 4 17 7 46 16 64 19 l32 6 -20 -47 c-26 -60 -34 -68 -69 -76 -42 -8 -40 -36 2 -36 42 0 91 52 143 153 45 88 118 169 128 143 4 -9 14 -16 23 -16 9 0 -8 -13 -37 -28 -57 -30 -82 -62 -76 -99 3 -15 -2 -24 -14 -28 -47 -15 -90 -111 -58 -130 6 -4 -11 -22 -40 -41 -56 -38 -69 -74 -28 -74 19 0 17 -5 -21 -36 -57 -48 -78 -89 -62 -120 11 -20 9 -27 -14 -55 -15 -17 -36 -49 -46 -70 -16 -30 -36 -46 -101 -81 -92 -49 -198 -140 -223 -192 -9 -19 -16 -52 -16 -75 0 -32 5 -44 25 -57 30 -20 74 -12 109 21 69 64 25 170 -50 120 -24 -16 -25 -16 -15 2 26 48 139 138 212 170 l26 11 -8 -42 c-4 -23 -10 -82 -14 -131 -6 -89 -29 -175 -45 -175 -14 0 -40 -30 -40 -46 0 -22 16 -17 51 18 46 47 70 109 85 220 15 114 46 171 119 214 90 52 166 36 180 -40 15 -79 -50 -186 -112 -186 -54 0 -77 56 -25 62 21 2 27 8 27 28 0 19 -6 26 -23 28 -71 10 -94 -119 -27 -150 32 -14 92 2 133 36 71 61 107 191 69 249 -51 78 -226 43 -307 -60 l-21 -28 7 25 c13 51 32 87 63 122 25 28 40 36 77 41 46 5 117 45 137 78 17 27 0 69 -27 69 -31 0 -54 -26 -38 -42 21 -21 13 -39 -25 -54 -27 -12 -42 -13 -60 -5 -28 13 -29 30 -3 63 36 46 79 58 297 79 442 42 642 65 650 73 8 9 -91 3 -352 -19 -296 -26 -523 -37 -540 -27 -15 8 -14 12 11 31 15 12 39 24 53 27 14 2 49 11 76 19 l50 14 -45 -39 c-53 -46 -33 -55 26 -12 63 46 111 106 149 186 53 112 50 111 279 97 105 -7 260 -19 345 -27 136 -13 175 -13 160 0 -5 4 -501 61 -664 76 -199 18 -220 26 -148 57 34 14 51 14 178 -1 77 -8 235 -23 350 -32 116 -8 260 -21 320 -28 61 -7 114 -10 118 -6 13 12 -80 25 -498 70 -104 12 -207 24 -227 27 l-38 5 25 20 c14 11 25 29 25 42 0 16 9 25 36 35 97 35 97 101 -2 126 l-49 12 41 13 c39 12 51 9 300 -73 276 -91 558 -171 577 -164 15 6 10 8 -141 52 -67 19 -219 70 -338 112 l-216 76 44 21 c28 14 44 28 46 42 2 16 13 24 38 28 52 10 89 46 80 79 -7 31 -30 45 -89 56 l-42 7 57 19 c51 16 63 17 113 5 56 -13 56 -14 31 -27 -31 -16 -34 -47 -9 -83 28 -40 53 -57 128 -89 103 -43 394 -130 401 -120 3 5 -1 11 -8 14 -120 42 -374 138 -395 149 -44 22 -75 61 -71 88 2 17 13 26 46 36 43 14 48 32 9 32 -32 1 -95 25 -118 46 -23 21 -15 28 47 38 34 5 51 1 87 -20 35 -19 57 -24 94 -22 46 3 48 4 48 33 0 25 -4 30 -28 33 -22 3 -30 -1 -34 -17 -7 -28 -17 -26 -47 10 -29 35 -31 40 -14 57 20 20 55 13 102 -20 59 -41 148 -52 165 -20 13 25 5 49 -21 63 -24 13 -51 -7 -45 -33 7 -25 -6 -23 -42 8 -38 31 -40 61 -7 70 33 8 62 -2 121 -41 49 -32 115 -55 115 -38 0 4 -18 19 -40 32 -22 14 -55 40 -72 59 -32 33 -32 34 -8 27 31 -9 102 -62 195 -145 59 -53 212 -179 470 -389 30 -23 59 -41 65 -39 6 2 -60 64 -147 139 -179 155 -416 370 -411 374 2 2 26 -2 55 -8 43 -9 55 -8 77 6 49 32 22 118 -47 150 -50 24 -123 23 -137 -2 -13 -25 -4 -48 21 -56 24 -8 52 13 45 32 -9 22 41 15 64 -9 29 -31 23 -70 -12 -82 -41 -14 -121 15 -198 72 -92 69 -184 122 -237 138 -52 16 -136 17 -170 4z m-203 -523 c62 -31 14 -80 -59 -59 -21 7 -48 12 -59 12 -34 0 -34 17 1 39 36 23 80 27 117 8z m-97 -89 c25 -13 17 -30 -24 -51 -35 -19 -70 -18 -123 2 l-28 11 43 30 c45 31 85 34 132 8z m-196 -169 c21 -18 15 -37 -15 -53 -18 -9 -33 -11 -43 -5 -8 5 -36 9 -63 9 l-49 0 19 21 c40 45 113 59 151 28z m-118 -90 c37 -13 40 -31 6 -53 -27 -18 -120 -22 -130 -6 -9 14 49 70 73 70 10 0 33 -5 51 -11z m-139 -250 c-22 -23 -40 -45 -40 -49 0 -5 -18 -11 -40 -15 -54 -9 -96 15 -79 46 16 30 86 59 146 59 l53 0 -40 -41z m-86 -132 c-19 -40 -49 -57 -99 -57 -69 0 -82 20 -40 60 18 17 36 23 58 22 18 -1 46 2 62 7 17 4 31 7 33 6 2 -1 -5 -18 -14 -38z m-687 -824 c10 -4 23 2 35 16 17 23 18 23 18 3 0 -12 -10 -28 -22 -36 -20 -14 -24 -14 -40 1 -10 9 -17 28 -17 42 2 24 2 25 6 3 3 -13 12 -26 20 -29z"/>
 <path d="M3090 5666 c0 -30 13 -40 41 -31 31 10 21 49 -13 53 -24 3 -28 0 -28 -22z"/>
 <path d="M1830 5603 c0 -9 7 -25 17 -35 22 -25 13 -23 -27 7 -36 26 -95 35 -88 13 3 -7 15 -18 28 -25 l23 -11 -29 -4 c-48 -5 -37 -32 16 -39 25 -3 54 -10 64 -14 16 -7 18 -5 14 13 -4 12 -2 20 2 17 5 -3 12 0 15 5 4 7 19 8 36 5 22 -5 29 -3 29 9 0 8 -9 18 -20 21 -11 3 -23 17 -26 31 -7 29 -54 35 -54 7z"/>
 <path d="M5536 4678 c-3 -13 -7 -34 -9 -48 -2 -14 -8 -34 -12 -44 -7 -16 -5 -18 13 -14 12 4 20 2 17 -2 -3 -5 -1 -11 5 -15 5 -3 7 -19 3 -35 -7 -37 9 -39 31 -5 9 14 25 25 36 25 15 0 20 7 20 26 0 24 -3 26 -31 20 l-30 -6 19 28 c36 51 33 102 -3 72 -12 -10 -16 -9 -21 4 -9 24 -33 20 -38 -6z"/>
 <path d="M702 4338 c-21 -21 -13 -37 21 -47 31 -9 30 -9 -19 -10 -27 -1 -58 -7 -69 -14 -25 -19 -10 -40 24 -33 21 5 23 4 9 -4 -10 -6 -18 -17 -18 -25 0 -25 21 -28 51 -6 15 11 37 21 48 21 30 0 36 19 9 29 -17 7 -19 10 -5 10 9 1 17 7 17 14 0 8 11 19 25 25 34 16 32 35 -3 28 -17 -4 -35 -1 -47 8 -25 19 -28 19 -43 4z"/>
 <path d="M5806 4017 c-30 -62 -32 -71 -12 -64 10 4 13 1 9 -9 -3 -8 1 -14 8 -14 10 0 10 -3 1 -12 -14 -14 -16 -48 -3 -48 5 0 14 6 21 14 6 8 24 16 38 18 21 2 27 8 27 28 0 26 -12 29 -50 14 -11 -4 -1 10 23 32 41 40 55 74 29 74 -7 0 -18 -5 -25 -12 -9 -9 -12 -7 -12 10 0 39 -27 23 -54 -31z"/>
 <path d="M1251 3409 c-116 -104 -392 -329 -403 -329 -2 0 -2 16 0 35 8 70 -53 97 -118 53 -48 -33 -74 -73 -74 -113 0 -45 26 -74 48 -55 22 18 20 51 -4 57 -23 6 -22 5 -14 28 8 19 55 45 82 45 11 0 25 -6 31 -14 23 -28 -14 -86 -99 -158 -156 -133 -245 -288 -225 -394 9 -49 20 -34 21 30 1 73 47 155 136 242 39 38 68 61 65 52 -3 -9 -9 -33 -13 -52 -6 -35 0 -42 29 -37 5 1 6 -6 3 -16 -22 -76 -17 -113 16 -113 15 0 18 -4 13 -17 -4 -10 -9 -35 -12 -55 -7 -44 9 -68 44 -68 22 0 23 -3 17 -36 -17 -92 -4 -144 36 -144 14 0 17 -10 18 -65 2 -92 36 -174 143 -345 59 -94 58 -89 32 -152 -40 -99 -49 -180 -30 -281 21 -115 77 -237 109 -237 15 0 8 37 -11 54 -30 27 -59 98 -71 171 -14 85 -1 157 48 273 l37 87 6 -51 c9 -70 25 -97 54 -92 21 4 25 0 31 -36 8 -53 21 -69 44 -56 16 8 19 4 25 -30 9 -50 41 -93 66 -87 13 3 19 0 19 -11 0 -27 48 -98 85 -126 19 -15 50 -43 69 -62 l34 -35 -5 40 c-3 23 -3 41 1 41 3 0 19 -29 35 -65 32 -69 57 -90 73 -60 9 15 13 12 28 -21 25 -57 63 -89 88 -75 17 9 23 5 45 -29 15 -21 44 -53 65 -70 31 -25 41 -41 51 -85 17 -74 82 -205 127 -255 44 -49 82 -70 123 -70 72 0 82 87 17 147 -59 54 -122 43 -114 -21 4 -33 3 -34 -13 -20 -34 31 -130 236 -117 250 6 5 159 -46 176 -59 7 -5 20 -25 28 -43 21 -44 38 -44 30 -1 -8 44 -81 112 -137 128 -24 7 -59 26 -77 43 -98 91 -96 256 4 256 73 0 174 -81 174 -140 0 -27 -2 -29 -29 -24 -38 8 -71 -11 -71 -40 0 -47 70 -67 109 -32 17 16 20 16 35 1 22 -22 44 -66 67 -132 l18 -54 -42 31 c-23 16 -53 46 -66 65 -27 40 -37 39 -27 0 10 -39 86 -116 148 -149 53 -29 55 -31 82 -110 15 -45 41 -99 57 -121 37 -50 103 -95 139 -95 15 0 49 -12 75 -27 121 -67 229 6 146 99 -23 26 -36 33 -69 33 -22 0 -47 -7 -56 -14 -19 -16 -21 -52 -3 -70 6 -8 -9 0 -34 17 -25 17 -57 46 -72 65 -28 37 -91 156 -85 162 11 11 98 -31 124 -61 35 -38 55 -44 47 -14 -7 28 -78 89 -129 111 -49 22 -63 50 -108 220 -28 105 -118 413 -173 592 -20 64 -41 117 -46 117 -5 0 -7 -8 -4 -17 2 -10 30 -115 62 -233 31 -118 72 -269 91 -335 19 -66 34 -123 34 -127 0 -5 -14 -1 -31 8 -24 12 -37 13 -55 5 -20 -9 -25 -6 -44 25 -12 19 -30 39 -41 44 -13 8 -19 22 -19 48 0 91 -124 212 -217 212 -102 0 -135 -125 -68 -256 13 -27 22 -50 20 -53 -3 -2 -27 19 -55 46 l-50 51 5 68 c5 55 3 76 -12 104 -15 30 -23 35 -53 35 -30 0 -35 -3 -35 -24 0 -30 31 -53 44 -32 11 18 31 5 31 -20 0 -27 -26 -75 -44 -82 -19 -7 -40 19 -56 67 -13 40 -11 94 9 231 6 39 15 183 21 320 6 138 15 292 20 343 7 61 7 100 0 110 -5 10 -10 14 -10 10 0 -3 -7 -66 -15 -140 -8 -73 -19 -205 -25 -293 -17 -275 -39 -457 -67 -549 -5 -18 -6 -18 -19 5 -7 13 -20 45 -29 71 -15 44 -15 55 9 210 25 165 56 460 56 539 0 88 -18 20 -34 -131 -16 -142 -56 -421 -61 -428 -1 -2 -16 11 -33 28 -34 34 -53 37 -76 14 -18 -17 -24 -41 -28 -99 l-3 -40 -18 33 c-17 32 -17 33 13 120 30 85 103 419 116 535 8 64 -10 82 -19 20 -4 -21 -27 -126 -53 -235 l-48 -196 -31 5 c-26 4 -41 -2 -79 -31 -26 -20 -52 -34 -57 -30 -15 9 -10 45 11 71 41 52 34 159 -12 184 -29 16 -53 -9 -44 -46 6 -23 11 -26 31 -21 21 5 25 3 25 -17 0 -27 -41 -77 -63 -77 -8 0 -18 7 -21 16 -11 28 -6 108 9 149 8 22 15 56 14 75 0 40 2 43 -69 -80 -46 -79 -49 -82 -43 -45 7 47 212 538 325 780 44 94 82 176 85 183 3 6 0 12 -7 12 -13 0 -129 -237 -249 -508 -44 -100 -87 -194 -95 -210 -13 -23 -15 -24 -16 -7 0 28 -28 65 -48 65 -14 0 -17 7 -14 40 6 60 -18 92 -66 88 -33 -3 -39 -8 -62 -53 -23 -46 -25 -48 -31 -25 -14 52 -9 99 15 134 24 36 24 36 30 11 9 -34 47 -42 88 -18 18 11 54 46 80 78 53 65 221 395 216 423 -2 9 -40 -52 -87 -143 -46 -88 -96 -178 -112 -201 -32 -47 -104 -114 -122 -114 -30 1 -40 18 -35 64 7 57 -3 66 -24 23 -24 -50 -68 -97 -90 -97 -19 0 -20 5 -16 54 4 45 10 59 35 80 55 46 78 144 37 160 -21 8 -42 -3 -49 -25 -8 -26 3 -42 26 -36 31 8 3 -31 -36 -50 -79 -38 -90 24 -16 95 51 49 75 106 65 149 -7 27 -39 39 -59 23 -22 -18 -18 -51 6 -57 12 -4 18 -11 15 -20 -3 -8 -6 -16 -6 -19 0 -2 -19 -13 -41 -25 -81 -41 -78 27 6 120 49 55 73 96 63 107 -3 2 -31 -21 -64 -51 -68 -63 -88 -70 -73 -26 14 40 33 59 186 184 175 142 473 415 473 433 0 8 -1 14 -2 13 -2 0 -63 -54 -137 -120z m-243 -1163 c2 -28 -2 -44 -17 -60 -11 -12 -24 -40 -29 -61 l-8 -40 -23 43 c-18 36 -20 49 -12 79 12 42 49 85 71 81 10 -2 16 -17 18 -42z m60 -145 c3 -43 -22 -121 -39 -121 -4 0 -17 16 -29 35 -19 31 -20 39 -9 72 16 50 28 65 53 61 17 -2 22 -11 24 -47z m292 -426 c0 -29 -36 -105 -49 -105 -5 0 -15 16 -23 36 -15 36 -14 37 16 65 39 35 56 36 56 4z m137 -142 c18 -27 21 -79 9 -129 l-7 -27 -35 34 c-38 37 -46 88 -18 127 20 29 30 28 51 -5z m614 -438 c0 -13 -41 -19 -41 -7 0 11 20 22 33 18 5 -1 8 -6 8 -11z m243 -137 c14 -13 34 -46 44 -74 l19 -51 -41 9 c-48 10 -86 48 -86 87 0 26 15 51 31 51 5 0 19 -10 33 -22z m56 -178 c5 0 14 -15 20 -34 6 -19 33 -70 59 -114 39 -65 44 -78 28 -74 -34 9 -95 81 -115 135 -35 94 -36 101 -17 94 9 -4 20 -7 25 -7z m-240 -40 c34 -34 19 -71 -29 -69 -26 0 -26 0 -3 9 31 13 28 46 -5 64 -26 14 -27 15 -5 16 12 0 31 -9 42 -20z m584 -193 c9 -15 7 -21 -8 -33 -11 -8 -25 -14 -30 -13 -6 0 -5 3 2 6 18 7 15 40 -5 53 -16 9 -15 10 6 8 13 -2 29 -11 35 -21z"/>
 <path d="M5946 3230 c-40 -36 -53 -79 -36 -121 17 -41 54 -48 86 -18 22 21 24 21 18 4 -14 -40 -94 -143 -151 -195 l-58 -53 -15 114 c-17 123 -13 164 20 190 21 18 44 68 36 77 -13 12 -75 -69 -95 -123 -20 -51 -22 -71 -16 -137 5 -67 4 -82 -16 -120 -81 -159 -195 -187 -238 -59 -16 49 -14 137 5 177 21 45 79 94 110 94 35 0 54 -42 34 -78 -8 -14 -21 -27 -28 -30 -11 -3 -11 0 -1 16 16 25 5 52 -21 52 -23 0 -44 -42 -35 -71 7 -22 44 -34 74 -24 30 9 53 59 49 108 -9 122 -183 55 -232 -90 -30 -89 -17 -207 29 -257 57 -62 183 -11 258 104 l29 45 -7 -45 c-17 -107 -79 -212 -135 -229 -76 -23 -134 -97 -110 -142 13 -24 48 -22 64 3 8 13 6 22 -9 38 -20 22 -20 22 4 41 28 23 74 25 95 3 14 -13 14 -19 2 -43 -15 -28 -74 -73 -111 -84 -11 -3 -94 -18 -185 -32 -289 -46 -613 -110 -617 -121 -2 -7 43 -3 129 13 206 36 597 92 670 95 37 2 70 -1 74 -5 15 -15 -69 -83 -116 -95 -24 -6 -47 -9 -50 -6 -3 3 12 21 33 40 44 41 46 47 10 33 -44 -16 -82 -59 -118 -130 -18 -36 -39 -70 -47 -76 -7 -6 -94 -13 -203 -17 -219 -7 -366 -28 -344 -50 2 -2 27 0 54 6 60 13 485 17 568 5 31 -5 57 -13 57 -18 0 -5 -18 -18 -40 -29 -31 -16 -59 -20 -129 -20 -174 0 -553 -61 -529 -85 2 -2 53 5 113 15 61 11 165 22 232 26 l122 7 -11 -31 c-14 -36 0 -57 59 -93 18 -11 33 -25 33 -30 0 -5 -18 -20 -40 -35 l-39 -26 -163 16 c-302 30 -758 46 -758 28 0 -5 73 -12 163 -15 89 -4 258 -16 376 -27 118 -11 222 -20 230 -20 9 0 -1 -12 -22 -26 -48 -32 -63 -68 -42 -100 12 -18 25 -24 67 -26 l53 -3 -35 -23 c-27 -18 -43 -22 -70 -17 -95 17 -116 17 -155 -1 l-40 -18 65 -6 c36 -4 82 -12 104 -19 31 -11 36 -15 25 -26 -40 -36 -69 -34 -239 17 -209 63 -506 138 -544 138 -45 0 -19 -15 49 -29 53 -12 478 -146 498 -158 4 -3 -11 -14 -35 -26 -24 -12 -47 -32 -53 -44 -5 -13 -17 -23 -25 -23 -28 0 -115 -47 -175 -95 -66 -53 -187 -115 -222 -115 -35 0 -27 -17 10 -23 43 -7 167 -63 167 -75 0 -6 -18 -13 -40 -17 -61 -10 -38 -29 27 -22 59 6 87 22 78 45 -6 17 34 14 155 -13 201 -45 369 -2 372 95 2 61 -66 89 -131 55 -50 -25 -57 -86 -14 -108 l27 -15 -35 -8 c-47 -11 -154 -7 -214 8 -45 12 -50 16 -47 38 5 32 3 30 53 41 55 13 69 25 69 60 0 37 -35 61 -101 67 -54 5 -60 12 -26 34 43 29 67 31 90 10 36 -34 105 -48 157 -31 72 23 94 99 29 99 -33 0 -48 -22 -29 -44 9 -12 7 -17 -10 -26 -31 -17 -67 -4 -85 30 -13 26 -13 30 1 44 32 33 77 33 249 1 152 -29 327 -3 380 55 28 31 13 33 -36 6 -67 -39 -161 -52 -266 -37 -49 7 -92 17 -98 22 -5 6 -4 9 5 9 31 0 100 42 100 61 0 11 -7 19 -17 19 -10 0 5 11 32 24 28 13 64 39 81 57 35 39 114 143 114 151 0 4 -10 4 -22 1 -13 -3 -2 8 26 26 40 27 47 36 44 56 -4 18 1 29 18 40 59 38 82 85 56 111 -13 14 -14 17 -1 24 84 48 108 88 59 100 l-25 6 30 16 c37 20 81 66 89 95 5 15 1 28 -12 41 -19 19 -19 20 9 36 38 23 83 82 75 101 -3 8 -15 15 -28 15 -20 0 -18 4 19 43 65 66 76 122 28 141 -14 5 -13 10 9 38 32 42 86 157 86 183 0 12 15 30 35 44 58 39 192 186 219 240 68 133 -1 246 -98 161z m56 -37 c24 -21 23 -30 -4 -29 -13 1 -27 -8 -33 -21 -13 -25 -25 -20 -25 10 0 19 26 57 38 57 3 0 14 -7 24 -17z m-462 -1013 c23 -14 -33 -66 -92 -86 -64 -21 -74 -16 -43 26 14 18 25 39 25 46 0 7 6 15 13 17 21 9 81 7 97 -3z m-157 -267 c25 -6 21 -28 -9 -52 -33 -26 -36 -26 -79 2 -74 47 -19 80 88 50z m-172 -233 c37 0 37 -12 -4 -57 -28 -30 -41 -36 -77 -37 -49 -1 -73 21 -54 52 14 22 75 54 92 47 8 -3 27 -5 43 -5z m-570 -480 c20 -6 43 -18 50 -26 11 -14 10 -19 -10 -35 -29 -24 -47 -24 -96 1 -22 11 -46 20 -55 20 -10 1 -6 8 13 25 31 28 45 30 98 15z m-118 -73 c18 -8 38 -21 45 -30 11 -13 10 -18 -13 -33 -23 -15 -32 -16 -83 -4 -31 7 -65 17 -76 22 -16 9 -12 13 30 33 59 28 57 28 97 12z m464 -37 c2 -32 2 -33 -7 -11 -8 18 -16 22 -35 18 -25 -4 -25 -4 -8 15 25 28 48 19 50 -22z"/>
 <path d="M567 3023 c-4 -3 -24 -9 -44 -12 -30 -5 -39 -11 -41 -30 -3 -21 -1 -23 29 -19 33 5 33 5 10 -11 -37 -26 -71 -59 -71 -71 0 -13 33 -13 47 1 7 7 9 3 5 -16 -4 -22 -1 -26 14 -23 10 2 24 13 30 26 6 12 18 30 27 40 19 21 22 42 7 42 -5 0 -10 9 -10 19 0 11 5 23 10 26 6 3 10 13 10 21 0 15 -12 19 -23 7z"/>
 <path d="M5847 2585 c-15 -14 -35 -25 -43 -25 -9 0 -14 -6 -11 -12 2 -7 13 -12 23 -10 18 2 18 2 2 -8 -10 -6 -18 -16 -18 -23 0 -7 -9 -18 -20 -25 -33 -20 -23 -27 42 -27 51 0 63 3 66 17 2 12 -6 20 -30 26 l-33 9 47 8 c52 8 93 40 65 51 -8 3 -26 0 -39 -7 -22 -12 -23 -11 -5 8 39 45 2 60 -46 18z"/>
 <path d="M686 2381 c-10 -11 -28 -21 -40 -23 -13 -2 -22 -11 -24 -25 -3 -18 1 -23 19 -23 28 0 79 47 79 72 0 23 -12 23 -34 -1z"/>
 <path d="M661 2295 c-42 -45 -54 -85 -26 -85 9 0 19 8 22 18 6 14 8 13 13 -8 9 -36 32 -31 43 10 5 19 13 39 18 45 12 12 12 48 -1 40 -5 -3 -10 1 -10 9 0 26 -15 18 -59 -29z"/>
 <path d="M5692 2273 c-17 -7 -39 -51 -62 -127 -24 -76 -54 -123 -99 -153 -32 -22 -33 -23 -10 -23 37 0 93 43 119 93 21 39 31 47 70 57 25 7 56 15 69 19 26 8 50 36 39 47 -7 7 -106 -23 -125 -39 -19 -14 -16 10 6 59 10 23 29 49 42 58 l23 16 -29 -1 c-17 0 -36 -3 -43 -6z"/>
 <path d="M5207 1453 c-16 -15 -4 -21 50 -25 68 -6 93 -1 93 18 0 11 -17 14 -68 14 -38 0 -72 -3 -75 -7z"/>
 <path d="M2966 1388 c155 -164 229 -245 402 -448 105 -123 189 -226 187 -228 -2 -2 -19 1 -38 7 -25 9 -70 51 -161 151 -69 77 -154 166 -188 198 -137 126 -208 183 -222 180 -9 -2 34 -47 106 -113 67 -60 151 -146 187 -190 100 -120 96 -111 46 -107 -35 3 -46 0 -56 -16 -12 -19 -13 -19 -57 4 -50 26 -82 30 -100 12 -28 -28 -3 -99 50 -140 l23 -18 -35 6 c-19 4 -70 21 -112 39 -43 18 -78 29 -78 24 0 -17 95 -70 163 -91 60 -18 84 -20 190 -14 67 3 141 9 164 12 41 6 45 4 110 -56 98 -90 248 -156 334 -148 52 5 40 23 -16 24 -27 1 -67 9 -89 18 -50 21 -151 93 -198 143 l-37 38 51 -4 c48 -3 51 -2 45 19 -4 17 -2 20 11 15 9 -4 38 -10 64 -12 39 -5 48 -2 59 15 11 18 20 20 59 15 58 -7 90 9 90 43 0 24 3 25 33 19 17 -4 61 -26 97 -50 94 -62 139 -82 207 -94 110 -20 193 11 193 74 0 68 -104 102 -155 50 -32 -32 -32 -58 3 -85 l27 -22 -40 7 c-62 12 -135 41 -195 80 -44 28 -50 35 -31 35 18 0 22 4 19 18 -5 17 0 18 44 14 113 -11 120 95 9 153 -21 10 -50 15 -84 13 -48 -3 -52 -5 -55 -30 -2 -19 3 -30 18 -38 26 -14 54 4 47 32 -6 22 -4 22 33 3 16 -9 37 -29 46 -46 14 -28 14 -33 1 -46 -21 -21 -80 -3 -153 47 -38 26 -70 40 -89 39 -28 0 -28 -1 -11 -12 32 -20 116 -99 116 -110 0 -18 -110 2 -148 28 -29 20 -32 25 -19 31 10 3 31 4 47 2 32 -5 41 6 14 16 -42 16 -123 17 -189 1 -121 -28 -164 -35 -194 -29 -21 4 -58 39 -132 123 -154 173 -430 451 -448 451 -9 0 4 -20 35 -52z m857 -569 c39 -39 40 -42 23 -55 -22 -16 -65 -9 -83 13 -6 8 -26 25 -43 38 l-33 24 29 6 c16 4 34 8 39 10 22 7 29 4 68 -36z m-139 -23 c40 -37 40 -66 0 -66 -34 0 -116 44 -137 75 l-18 25 60 0 c54 0 63 -3 95 -34z m-498 -12 c18 -9 36 -24 39 -35 4 -10 18 -28 32 -39 l26 -20 -31 0 c-17 0 -37 -3 -45 -6 -9 -3 -32 11 -57 35 -36 34 -40 42 -30 60 13 25 22 26 66 5z m157 2 c18 -7 49 -31 69 -52 l37 -39 -58 0 c-45 0 -64 5 -81 20 -35 32 -42 52 -24 69 19 19 17 19 57 2z m1046 -44 c5 -10 6 -24 2 -31 -6 -10 -10 -9 -15 4 -4 13 -14 16 -36 13 -28 -4 -29 -4 -13 14 21 23 50 23 62 0z"/>
 <path d="M1394 1285 c-3 -14 -15 -30 -26 -36 -12 -6 -18 -19 -16 -32 5 -33 34 -33 53 0 l16 28 -7 -30 c-12 -46 -10 -108 2 -112 6 -2 14 6 17 18 5 20 7 21 23 5 25 -26 40 -5 27 38 -6 19 -8 47 -5 62 4 23 2 26 -12 21 -22 -9 -46 14 -46 42 0 29 -18 26 -26 -4z"/>
 <path d="M5030 1270 c-19 -12 -15 -15 51 -29 58 -12 89 -8 89 14 0 21 -111 33 -140 15z"/>
 <path d="M4124 1226 c-38 -17 -74 -61 -74 -91 0 -33 38 -75 89 -99 40 -18 46 -25 43 -48 -2 -19 7 -38 34 -68 45 -49 87 -72 185 -100 88 -25 302 -40 313 -21 4 6 4 11 -1 11 -192 3 -321 30 -401 84 -57 38 -85 81 -62 96 8 5 36 10 63 10 73 0 56 16 -30 27 -98 13 -149 34 -165 68 -14 32 1 66 44 98 23 17 33 19 55 11 32 -11 41 -37 21 -61 -11 -14 -13 -13 -18 8 -7 28 -38 32 -53 7 -9 -13 -7 -22 7 -37 40 -44 121 -10 114 47 -4 33 -59 72 -102 72 -17 -1 -45 -7 -62 -14z"/>
 <path d="M1645 1071 c-3 -16 -13 -32 -21 -35 -19 -7 -18 -45 2 -53 25 -9 44 24 44 74 0 49 -15 58 -25 14z"/>
 <path d="M1673 996 c-13 -60 -8 -96 13 -96 9 0 14 13 15 38 1 32 2 33 8 12 4 -16 15 -26 30 -28 21 -3 23 -1 16 20 -4 12 -10 41 -13 62 -8 45 -28 59 -35 24 l-4 -23 -2 23 c-2 39 -17 23 -28 -32z"/>
 <path d="M2523 943 c-18 -7 -16 -38 2 -53 21 -17 45 -5 45 24 0 18 -21 41 -33 35 -1 0 -8 -3 -14 -6z"/>
 <path d="M3221 563 c8 -9 14 -32 14 -52 0 -30 4 -37 24 -39 21 -3 23 -1 19 32 -2 20 -3 36 -1 36 1 0 14 -22 28 -50 18 -35 31 -50 45 -50 26 0 25 18 -2 49 -20 22 -20 23 -2 8 11 -9 28 -17 37 -17 24 0 21 37 -3 45 -11 3 -28 17 -39 31 -19 24 -41 32 -41 15 0 -15 -38 -20 -44 -5 -3 8 -15 14 -27 14 -19 0 -20 -2 -8 -17z"/>
 </g>

</svg>