<svg xmlns="http://www.w3.org/2000/svg" viewBox="0 0 232.9 257"><defs><style>.cls-1{fill:#41636d;}.cls-2,.cls-3{fill:#0094d1;}.cls-3{opacity:0.57;}</style></defs><title>Ресурс 1</title><g id="Слой_2" data-name="Слой 2"><g id="Calque_2" data-name="Calque 2"><path class="cls-1" d="M116.45,257A116.45,116.45,0,1,1,232.9,140.55,116.58,116.58,0,0,1,116.45,257Zm0-223.18A106.73,106.73,0,1,0,223.18,140.55,106.85,106.85,0,0,0,116.45,33.82Z"/><path class="cls-1" d="M116.45,15a40.11,40.11,0,0,1-11-1.17V1.17a40.17,40.17,0,0,1,11-1.17,40.17,40.17,0,0,1,11,1.17V13.78A40.17,40.17,0,0,1,116.45,15Z"/><path class="cls-1" d="M208.57,54.51A40.15,40.15,0,0,1,200,47.59,40.15,40.15,0,0,1,193.06,39l5.2-5.21a40.06,40.06,0,0,1,8.59,6.93,40.06,40.06,0,0,1,6.93,8.59Z"/><path class="cls-1" d="M19.12,49.31a40.06,40.06,0,0,1,6.93-8.59,39.73,39.73,0,0,1,8.59-6.93L39.84,39a40.15,40.15,0,0,1-6.92,8.59,40.15,40.15,0,0,1-8.59,6.92Z"/><path class="cls-1" d="M208.17,134.5a91.85,91.85,0,0,0-89.72-89.72V41.07a95.57,95.57,0,0,1,93.43,93.43Z"/><path class="cls-2" d="M120,140.88a5.27,5.27,0,1,0,8.57,6.14L177.2,79.08l-56.82,61.29C120.24,140.52,120.09,140.71,120,140.88Z"/><path class="cls-3" d="M119.72,139.34c-1.28,2.8-.87,6.71.92,8.72s4.29,1.36,5.57-1.44l36.84-80.56-43,72.67C119.93,138.91,119.82,139.13,119.72,139.34Z"/></g></g></svg>