<!DOCTYPE svg PUBLIC "-//W3C//DTD SVG 20010904//EN" "http://www.w3.org/TR/2001/REC-SVG-20010904/DTD/svg10.dtd">
<svg version="1.0" xmlns="http://www.w3.org/2000/svg" width="182px" height="326px" viewBox="0 0 1820 3260" preserveAspectRatio="xMidYMid meet">
<g id="layer101" fill="#41636d" stroke="none">
 <path d="M715 3245 c-326 -74 -574 -302 -682 -625 l-28 -85 0 -905 0 -905 28 -85 c88 -261 269 -464 507 -567 136 -58 188 -68 370 -68 182 0 234 10 370 68 238 103 419 306 507 567 l28 85 0 905 0 905 -28 85 c-103 309 -333 529 -642 616 -81 23 -346 28 -430 9z m306 -110 c194 -16 410 -146 534 -320 86 -122 130 -239 145 -390 12 -130 12 -1460 0 -1590 -19 -197 -103 -370 -241 -500 -175 -165 -385 -235 -635 -213 -338 29 -632 299 -696 636 -19 96 -19 1648 0 1744 63 336 358 606 694 637 46 4 94 6 108 5 14 -2 55 -6 91 -9z"/>
 <path d="M874 2658 c-59 -49 -125 -128 -118 -140 5 -7 56 -9 158 -5 83 3 152 6 154 7 1 0 2 6 2 13 0 11 -142 157 -153 157 -3 0 -22 -14 -43 -32z"/>
 <path d="M872 2327 c-7 -7 -15 -29 -18 -47 -8 -40 13 -60 63 -60 29 0 33 4 44 40 10 34 10 43 -2 55 -22 22 -73 29 -87 12z"/>
 <path d="M798 2023 c-27 -2 -48 -8 -48 -13 0 -14 149 -162 159 -158 24 8 161 141 161 156 0 15 -14 17 -113 18 -61 0 -133 -1 -159 -3z"/>
 <path d="M834 1246 l-34 -34 0 -307 0 -307 34 -34 c50 -50 122 -50 172 0 l34 34 0 307 0 307 -34 34 c-30 30 -40 34 -86 34 -46 0 -56 -4 -86 -34z"/>
 </g>
<g id="layer102" fill="#49b0da" stroke="none">
 <path d="M834 1246 l-34 -34 0 -307 0 -307 34 -34 c50 -50 122 -50 172 0 l34 34 0 307 0 307 -34 34 c-30 30 -40 34 -86 34 -46 0 -56 -4 -86 -34z"/>
 </g>

</svg>